<?xml version="1.0" standalone="no"?>
<!DOCTYPE svg PUBLIC "-//W3C//DTD SVG 20010904//EN"
 "http://www.w3.org/TR/2001/REC-SVG-20010904/DTD/svg10.dtd">
<svg version="1.0" xmlns="http://www.w3.org/2000/svg"
 width="1208.000000pt" height="1208.000000pt" viewBox="0 0 1208.000000 1208.000000"
 preserveAspectRatio="xMidYMid meet">
<metadata>
Created by potrace 1.14, written by Peter Selinger 2001-2017
</metadata>
<g transform="translate(0.000000,1208.000000) scale(0.100000,-0.100000)"
fill="#000000" stroke="none">
<path d="M5748 12075 c-1 -1 -55 -6 -118 -9 -172 -11 -284 -23 -480 -52 -115
-17 -133 -20 -235 -40 -44 -9 -93 -18 -110 -20 -31 -4 -407 -97 -460 -114
-312 -100 -452 -149 -555 -193 -19 -8 -80 -34 -135 -57 -155 -65 -525 -249
-605 -302 -14 -8 -44 -26 -67 -39 -114 -65 -387 -240 -403 -258 -3 -3 -25 -20
-50 -36 -25 -17 -49 -34 -55 -38 -5 -4 -44 -33 -85 -65 -69 -52 -279 -221
-306 -247 -6 -5 -51 -46 -100 -90 -192 -173 -419 -411 -589 -616 -38 -46 -72
-86 -75 -89 -28 -27 -290 -388 -290 -400 0 -4 -4 -10 -8 -12 -12 -5 -178 -273
-256 -413 -84 -149 -176 -333 -245 -490 -48 -107 -61 -138 -91 -210 -95 -227
-218 -626 -283 -920 -31 -137 -42 -197 -71 -365 -7 -38 -16 -100 -22 -145 -3
-22 -7 -53 -9 -70 -2 -16 -6 -57 -10 -90 -3 -33 -8 -73 -10 -90 -26 -202 -26
-950 0 -1117 2 -13 6 -57 10 -98 4 -41 8 -82 10 -91 1 -8 6 -42 10 -75 25
-217 103 -587 179 -854 9 -30 18 -62 20 -70 19 -73 134 -405 165 -475 5 -11
26 -60 46 -110 55 -132 60 -143 157 -343 244 -498 568 -977 941 -1387 105
-115 320 -330 421 -420 43 -38 90 -80 103 -92 13 -11 41 -35 63 -53 21 -17 49
-41 62 -52 50 -42 67 -56 163 -129 55 -42 156 -115 225 -162 69 -48 130 -90
135 -95 27 -21 217 -134 350 -210 329 -186 685 -343 1050 -464 99 -33 187 -62
195 -64 8 -2 74 -19 145 -39 209 -57 566 -129 745 -150 30 -4 66 -8 80 -10 14
-2 54 -6 90 -10 36 -4 76 -8 90 -10 185 -26 926 -26 1125 0 17 2 57 7 90 10
88 9 125 14 245 31 29 4 115 20 335 59 17 3 38 8 47 11 10 3 29 7 44 10 47 9
369 93 399 104 17 7 37 13 45 15 69 14 459 156 605 220 33 14 83 36 110 48
184 79 564 286 768 417 210 135 574 408 730 547 234 211 462 444 635 652 21
24 47 55 60 70 98 111 442 595 442 622 0 5 5 9 10 9 6 0 10 4 10 9 0 5 22 45
48 88 27 43 52 85 55 93 4 8 17 31 29 50 37 61 203 391 251 500 182 414 300
789 402 1270 25 121 70 416 81 530 3 36 7 76 9 89 19 117 27 734 12 956 -10
156 -20 262 -33 355 -3 19 -7 49 -9 65 -8 61 -18 131 -21 150 -3 11 -7 36 -10
55 -60 385 -238 994 -391 1340 -247 558 -505 987 -857 1425 -109 135 -91 115
-231 271 -130 145 -358 368 -525 515 -129 113 -407 325 -555 424 -50 33 -91
63 -93 68 -2 4 -7 7 -12 7 -5 0 -36 18 -69 40 -113 75 -375 221 -556 310 -474
232 -860 365 -1430 494 -97 22 -359 65 -495 81 -25 3 -58 8 -75 10 -16 2 -66
6 -110 10 -44 4 -100 9 -125 11 -54 6 -717 14 -722 9z"/>
</g>
</svg>
